<svg id="Layer_1" data-name="Layer 1" xmlns="http://www.w3.org/2000/svg" viewBox="0 0 432.91 36.34"><defs><style>.cls-1{fill:gray;}.cls-2{fill:#036;}</style></defs><title>cgm_measures</title><path class="cls-1" d="M32,97H19.52a39.09,39.09,0,0,1-4.1-.19,18.61,18.61,0,0,1-3.19-.59,10.85,10.85,0,0,1-2.55-1.08,11.07,11.07,0,0,1-2.17-1.7A14.49,14.49,0,0,1,4,87.55a26.51,26.51,0,0,1-1.22-8.48,23.82,23.82,0,0,1,2.06-10.4,12.22,12.22,0,0,1,5.92-6.07,15.64,15.64,0,0,1,4-1.19,29.46,29.46,0,0,1,5.1-.43H32v6.43H20.76q-5.35,0-7.67,2.92a7.25,7.25,0,0,0-1.38,3.16,22.86,22.86,0,0,0-.46,4.89,22.9,22.9,0,0,0,.84,6.7A7.31,7.31,0,0,0,14.55,89q2.11,1.62,6.48,1.62H32Z" transform="translate(-2.73 -60.93)"/><path class="cls-1" d="M68.34,75.62V97H52.25q-2.11,0-3.73-.13a18.36,18.36,0,0,1-2.92-.46,11.59,11.59,0,0,1-2.38-.86,10.53,10.53,0,0,1-2.05-1.35,13.49,13.49,0,0,1-4.21-6,25.5,25.5,0,0,1-1.46-9.07,25.75,25.75,0,0,1,1.43-9,13.68,13.68,0,0,1,4.19-6Q45,61,52.57,61H68.34v6.43H53.49q-5.13,0-7.34,2.56t-2.21,8.45a24.61,24.61,0,0,0,.67,6,8.78,8.78,0,0,0,1.91,3.94q2.1,2.16,7.21,2.16h6.89V82h-10V75.62Z" transform="translate(-2.73 -60.93)"/><path class="cls-1" d="M94.9,89.12,104.35,61h11.18V97h-7.29V69.95L98.79,97H90.91L82,69.95V97H74.71V61H85.94Z" transform="translate(-2.73 -60.93)"/><path class="cls-2" d="M156.46,89.12,165.92,61h11.18V97H169.8V69.95L160.35,97h-7.88l-8.91-27.05V97h-7.29V61H147.5Z" transform="translate(-2.73 -60.93)"/><path class="cls-2" d="M211.44,67.41h-10q-1.94,0-3.32.13a12.86,12.86,0,0,0-2.38.43,5.52,5.52,0,0,0-1.7.81,6.63,6.63,0,0,0-1.3,1.27,5.83,5.83,0,0,0-.67,1,5.67,5.67,0,0,0-.4,1.11,11.65,11.65,0,0,0-.27,1.48q-.11.86-.22,2.21h20.25v6.43H191.19a13.51,13.51,0,0,0,.86,3.89,6.12,6.12,0,0,0,1.89,2.54,7.85,7.85,0,0,0,3.16,1.4,21.59,21.59,0,0,0,4.67.43h9.67V97h-10q-2.86,0-5-.22a23.37,23.37,0,0,1-3.86-.67,11.22,11.22,0,0,1-2.94-1.24A11.76,11.76,0,0,1,187.24,93a16,16,0,0,1-3.54-6,25.54,25.54,0,0,1-1.21-8.15q0-9.67,6.1-14.85a14.31,14.31,0,0,1,1.94-1.38,9,9,0,0,1,2.13-.89,16.66,16.66,0,0,1,2.56-.49,28.6,28.6,0,0,1,3.24-.16h13Z" transform="translate(-2.73 -60.93)"/><path class="cls-2" d="M228.93,61h8.8l14.9,36h-9l-3.46-8.37H226.5L223,97h-9Zm-.7,21.22h10.26l-5.13-12.58Z" transform="translate(-2.73 -60.93)"/><path class="cls-2" d="M256.42,90.57h16.42a20.81,20.81,0,0,0,3.4-.22,5.55,5.55,0,0,0,1.94-.65A3.59,3.59,0,0,0,280,86.42a4.3,4.3,0,0,0-.62-2.27,4.1,4.1,0,0,0-1.7-1.57A5.09,5.09,0,0,0,276,82.1a14.55,14.55,0,0,0-2.29-.16h-6.64a22,22,0,0,1-5.43-.57,8.57,8.57,0,0,1-3.59-1.81,9.48,9.48,0,0,1-2.51-3.48,11.06,11.06,0,0,1-.89-4.4,11.48,11.48,0,0,1,1.71-6.24,8.54,8.54,0,0,1,4.59-3.7,11.41,11.41,0,0,1,1.3-.38,12,12,0,0,1,1.6-.24Q264.79,61,266,61t2.75,0h17.82v6.43H270.46q-1.29,0-2,0l-1.21.05a8,8,0,0,0-.81.08l-.76.16A2.85,2.85,0,0,0,263.87,69a4.32,4.32,0,0,0-.65,2.4,4.19,4.19,0,0,0,.54,2.16,3.23,3.23,0,0,0,1.51,1.35,5.54,5.54,0,0,0,1.7.49,26,26,0,0,0,2.83.11h5.77a23.8,23.8,0,0,1,6.3.68,8.28,8.28,0,0,1,5.9,5.7,14,14,0,0,1,.73,4.48,11.91,11.91,0,0,1-1.24,5.4,9.07,9.07,0,0,1-3.35,3.78,6.06,6.06,0,0,1-1.46.7,11.18,11.18,0,0,1-1.92.43q-1.11.16-2.56.24t-3.46.08H256.42Z" transform="translate(-2.73 -60.93)"/><path class="cls-2" d="M301.4,82.53a14.4,14.4,0,0,0,.46,4.1,5.75,5.75,0,0,0,1.53,2.48,8.31,8.31,0,0,0,2.71,1.49,10.51,10.51,0,0,0,3.46.57,10.33,10.33,0,0,0,4.53-.92,5.33,5.33,0,0,0,2.66-2.54,7.77,7.77,0,0,0,.48-2,25.62,25.62,0,0,0,.16-3.19V60.93h7.72V82.15a22.78,22.78,0,0,1-.92,7.11,9.85,9.85,0,0,1-3,4.47,14.19,14.19,0,0,1-5,2.67,23.54,23.54,0,0,1-6.78.87q-8.53,0-12.42-3.92a14,14,0,0,1-1.57-2,8.85,8.85,0,0,1-1-2.25,15,15,0,0,1-.54-2.81,35.49,35.49,0,0,1-.16-3.62V60.93h7.72Z" transform="translate(-2.73 -60.93)"/><path class="cls-2" d="M339.74,97H332V61h17.6a36.64,36.64,0,0,1,6.64.49,10.7,10.7,0,0,1,4.16,1.62,8.9,8.9,0,0,1,2.94,3.37A10,10,0,0,1,364.42,71q0,8.15-6.9,10.53a7.84,7.84,0,0,1,4.78,3.32,13.58,13.58,0,0,1,1.79,6.67q.11,1.24.19,2.08c.05.56.11,1,.16,1.4a7.24,7.24,0,0,0,.22,1q.13.46.3.95h-8.64a5,5,0,0,1-.27-1q-.05-.38-.16-1-.11-.76-.19-1.7c-.05-.63-.1-1.12-.13-1.49a18.15,18.15,0,0,0-.86-4.08A6.29,6.29,0,0,0,353,85.15a6.45,6.45,0,0,0-2.87-1.4,19.14,19.14,0,0,0-4.26-.41h-6.12Zm10.67-20.09q3,0,4.21-1.16a5,5,0,0,0,1.26-3.81q0-3.35-2.63-4.27a11.27,11.27,0,0,0-2.84-.27H339.74v9.5Z" transform="translate(-2.73 -60.93)"/><path class="cls-2" d="M397.63,67.41h-10q-1.94,0-3.32.13a12.84,12.84,0,0,0-2.38.43,5.52,5.52,0,0,0-1.7.81,6.6,6.6,0,0,0-1.3,1.27,5.75,5.75,0,0,0-.67,1,5.64,5.64,0,0,0-.41,1.11,11.73,11.73,0,0,0-.27,1.48q-.11.86-.22,2.21h20.25v6.43H377.38a13.49,13.49,0,0,0,.86,3.89,6.12,6.12,0,0,0,1.89,2.54,7.85,7.85,0,0,0,3.16,1.4,21.59,21.59,0,0,0,4.67.43h9.67V97h-10q-2.86,0-5-.22a23.37,23.37,0,0,1-3.86-.67,11.22,11.22,0,0,1-2.94-1.24A11.75,11.75,0,0,1,373.44,93a15.94,15.94,0,0,1-3.54-6,25.52,25.52,0,0,1-1.22-8.15q0-9.67,6.1-14.85a14.25,14.25,0,0,1,1.94-1.38,9,9,0,0,1,2.13-.89,16.65,16.65,0,0,1,2.56-.49,28.62,28.62,0,0,1,3.24-.16h13Z" transform="translate(-2.73 -60.93)"/><path class="cls-2" d="M403.57,90.57H420a20.81,20.81,0,0,0,3.4-.22,5.55,5.55,0,0,0,1.94-.65,3.59,3.59,0,0,0,1.78-3.29,4.3,4.3,0,0,0-.62-2.27,4.1,4.1,0,0,0-1.7-1.57,5.09,5.09,0,0,0-1.59-.49,14.55,14.55,0,0,0-2.29-.16h-6.64a22,22,0,0,1-5.43-.57,8.57,8.57,0,0,1-3.59-1.81,9.48,9.48,0,0,1-2.51-3.48,11.06,11.06,0,0,1-.89-4.4,11.48,11.48,0,0,1,1.71-6.24,8.54,8.54,0,0,1,4.59-3.7,11.41,11.41,0,0,1,1.3-.38,12,12,0,0,1,1.6-.24q.89-.08,2.08-.11t2.75,0H433.7v6.43H417.61q-1.29,0-2,0l-1.21.05a8,8,0,0,0-.81.08l-.76.16A2.85,2.85,0,0,0,411,69a4.32,4.32,0,0,0-.65,2.4,4.19,4.19,0,0,0,.54,2.16,3.23,3.23,0,0,0,1.51,1.35,5.54,5.54,0,0,0,1.7.49,26,26,0,0,0,2.83.11h5.77a23.8,23.8,0,0,1,6.3.68,8.28,8.28,0,0,1,5.9,5.7,14,14,0,0,1,.73,4.48,11.91,11.91,0,0,1-1.24,5.4,9.07,9.07,0,0,1-3.35,3.78,6.06,6.06,0,0,1-1.46.7,11.18,11.18,0,0,1-1.92.43q-1.11.16-2.56.24t-3.46.08H403.57Z" transform="translate(-2.73 -60.93)"/></svg>